<svg width="172" height="51" viewBox="0 0 172 51" fill="none" xmlns="http://www.w3.org/2000/svg">
<rect width="172" height="50.3883" rx="14" fill="#E4E4E4"/>
<path d="M74.936 24.319H75.768C76.3573 24.319 76.8817 24.3103 77.341 24.293C77.809 24.2757 78.2553 24.2453 78.68 24.202C79.1047 24.1587 79.538 24.0893 79.98 23.994L80.11 25.385C79.6593 25.4717 79.213 25.541 78.771 25.593C78.3377 25.6363 77.8783 25.6667 77.393 25.684C76.9077 25.6927 76.366 25.697 75.768 25.697H74.936V24.319ZM74.936 20.055H79.655V21.446H76.639V25.086H74.936V20.055ZM83.139 19.106H84.79V27.036H83.139V19.106ZM81.683 22.005H83.594V23.396H81.683V22.005ZM80.578 19.327H82.19V25.957H80.578V19.327ZM79.785 26.438H81.254V26.776C81.254 27.3047 81.15 27.8073 80.942 28.284C80.734 28.7607 80.435 29.1897 80.045 29.571C79.655 29.9523 79.174 30.273 78.602 30.533C78.03 30.8017 77.3757 30.9923 76.639 31.105L75.937 29.779C76.457 29.701 76.9207 29.5927 77.328 29.454C77.744 29.3067 78.1037 29.1333 78.407 28.934C78.719 28.7347 78.9747 28.518 79.174 28.284C79.3733 28.05 79.525 27.8073 79.629 27.556C79.733 27.296 79.785 27.036 79.785 26.776V26.438ZM80.019 26.438H81.501V26.776C81.501 27.036 81.5487 27.296 81.644 27.556C81.748 27.8073 81.8997 28.05 82.099 28.284C82.2983 28.518 82.5497 28.7347 82.853 28.934C83.165 29.1333 83.5247 29.3067 83.932 29.454C84.348 29.5927 84.816 29.701 85.336 29.779L84.634 31.105C83.8973 30.9923 83.243 30.8017 82.671 30.533C82.099 30.273 81.6137 29.9523 81.215 29.571C80.825 29.1897 80.526 28.7607 80.318 28.284C80.1187 27.8073 80.019 27.3047 80.019 26.776V26.438ZM87.831 19.587H95.449V20.952H87.831V19.587ZM86.492 23.344H97.399V24.722H86.492V23.344ZM94.409 19.587H96.112V20.406C96.112 20.8393 96.099 21.3333 96.073 21.888C96.047 22.434 95.956 23.058 95.8 23.76L94.097 23.604C94.253 22.9193 94.344 22.3213 94.37 21.81C94.396 21.2987 94.409 20.8307 94.409 20.406V19.587ZM87.701 25.541H96.086V28.921H89.443V30.143H87.714V27.647H94.357V26.867H87.701V25.541ZM87.714 29.727H96.398V31.066H87.714V29.727Z" fill="#8E8E8E"/>
<path d="M43.5625 24.5C43.5625 25.2249 42.9749 25.8125 42.25 25.8125C41.5251 25.8125 40.9375 25.2249 40.9375 24.5C40.9375 23.7751 41.5251 23.1875 42.25 23.1875C42.9749 23.1875 43.5625 23.7751 43.5625 24.5Z" fill="#8E8E8E"/>
<path d="M48.8125 24.5C48.8125 25.2249 48.2249 25.8125 47.5 25.8125C46.7751 25.8125 46.1875 25.2249 46.1875 24.5C46.1875 23.7751 46.7751 23.1875 47.5 23.1875C48.2249 23.1875 48.8125 23.7751 48.8125 24.5Z" fill="#8E8E8E"/>
<path d="M52.75 25.8125C53.4749 25.8125 54.0625 25.2249 54.0625 24.5C54.0625 23.7751 53.4749 23.1875 52.75 23.1875C52.0251 23.1875 51.4375 23.7751 51.4375 24.5C51.4375 25.2249 52.0251 25.8125 52.75 25.8125Z" fill="#8E8E8E"/>
<path d="M39.8411 34.7413L39.8677 34.7361C42.2688 34.2602 43.7375 33.6312 44.4193 33.2857C45.3935 33.5469 46.428 33.6875 47.5 33.6875C53.299 33.6875 58 29.5741 58 24.5C58 19.4259 53.299 15.3125 47.5 15.3125C41.701 15.3125 37 19.4259 37 24.5C37 26.8111 37.9753 28.923 39.5853 30.5376C39.4885 31.5496 39.2237 32.6354 38.8985 33.58L38.8934 33.5948C38.8538 33.7094 38.8134 33.8218 38.7723 33.9317C38.7075 34.1048 38.6411 34.2717 38.5737 34.4309C38.4705 34.6747 38.6704 34.9479 38.9316 34.9052C39.1166 34.8749 39.2969 34.8436 39.4725 34.8114C39.5977 34.7885 39.7206 34.7651 39.8411 34.7413ZM40.8919 30.6627C40.9291 30.2734 40.7909 29.8877 40.5147 29.6108C39.1227 28.2149 38.3125 26.4269 38.3125 24.5C38.3125 20.3099 42.2558 16.625 47.5 16.625C52.7442 16.625 56.6875 20.3099 56.6875 24.5C56.6875 28.6901 52.7442 32.375 47.5 32.375C46.5429 32.375 45.6227 32.2495 44.7593 32.018C44.4469 31.9342 44.1146 31.9688 43.8261 32.115C43.3178 32.3725 42.1997 32.8634 40.3689 33.2865C40.616 32.4431 40.8083 31.5351 40.8919 30.6627Z" fill="#8E8E8E"/>
</svg>
