<svg width="23" height="21" viewBox="0 0 23 21" fill="none" xmlns="http://www.w3.org/2000/svg">
<path d="M3.74958 20L10.9465 15.1244L6.28729 10.5459L3.74958 20Z" fill="#3C1E1E" stroke="#3C1E1E" stroke-linejoin="round"/>
<ellipse cx="11.2991" cy="8.8779" rx="11.2991" ry="8.8779" fill="#3C1E1E"/>
<path d="M3.55614 7.7222C3.37535 7.7222 3.24837 7.68346 3.17519 7.60598C3.10202 7.5242 3.06543 7.4295 3.06543 7.32189C3.06543 7.27454 3.07189 7.22935 3.0848 7.1863C3.10202 7.13895 3.12784 7.09806 3.16228 7.06363C3.20102 7.02489 3.25052 6.99475 3.31078 6.97323C3.37535 6.94741 3.45713 6.93449 3.55614 6.93449H6.81029C6.99107 6.93449 7.11806 6.97538 7.19123 7.05717C7.26441 7.13465 7.30099 7.22935 7.30099 7.34126C7.30099 7.38861 7.29238 7.43596 7.27517 7.48331C7.26225 7.52635 7.23643 7.56509 7.19769 7.59953C7.16325 7.63396 7.11375 7.66409 7.04918 7.68992C6.98892 7.71144 6.90929 7.7222 6.81029 7.7222H5.7514V11.3315C5.7514 11.4176 5.73418 11.4907 5.69974 11.551C5.66961 11.6156 5.62872 11.6672 5.57707 11.706C5.52541 11.749 5.46515 11.7791 5.39628 11.7964C5.33171 11.8179 5.265 11.8286 5.19613 11.8286C5.12295 11.8286 5.05193 11.8179 4.98306 11.7964C4.91849 11.7791 4.85823 11.749 4.80227 11.706C4.75062 11.6672 4.70757 11.6156 4.67314 11.551C4.64301 11.4907 4.62794 11.4176 4.62794 11.3315V7.7222H3.55614Z" fill="#FFEB01"/>
<path d="M7.47482 11.5316C7.44038 11.6349 7.36506 11.7146 7.24884 11.7705C7.13262 11.8265 6.99703 11.8372 6.84207 11.8028C6.76028 11.777 6.69356 11.7425 6.64191 11.6995C6.59026 11.6565 6.55152 11.607 6.52569 11.551C6.50417 11.495 6.49341 11.4391 6.49341 11.3831C6.49341 11.3272 6.50202 11.2734 6.51923 11.2217L7.92033 7.26378C7.95046 7.17769 8.01287 7.09591 8.10757 7.01843C8.20657 6.93664 8.35292 6.89575 8.54662 6.89575C8.74032 6.89575 8.88667 6.93664 8.98568 7.01843C9.08468 7.09591 9.14924 7.17769 9.17938 7.26378L10.5805 11.2346C10.6321 11.3853 10.63 11.5058 10.574 11.5962C10.5181 11.6866 10.4212 11.7512 10.2835 11.7899C10.1199 11.8372 9.98215 11.8329 9.87024 11.777C9.76263 11.721 9.6873 11.6285 9.64425 11.4993L9.34725 10.6148H7.78474L7.47482 11.5316ZM9.08253 9.83353L8.56599 8.29039L8.04946 9.83353H9.08253Z" fill="#FFEB01"/>
<path d="M11.1346 7.41228C11.1346 7.24872 11.1927 7.12819 11.309 7.05071C11.4252 6.97323 11.5565 6.93449 11.7028 6.93449C11.7717 6.93449 11.8384 6.94525 11.903 6.96678C11.9718 6.98399 12.0321 7.01197 12.0838 7.05071C12.1354 7.08945 12.1763 7.13895 12.2064 7.19921C12.2366 7.25948 12.2516 7.3305 12.2516 7.41228V11.0216H14.1111C14.2919 11.0216 14.4168 11.0624 14.4856 11.1442C14.5588 11.226 14.5954 11.3229 14.5954 11.4348C14.5954 11.4778 14.5889 11.5209 14.576 11.5639C14.5631 11.6113 14.5373 11.6543 14.4985 11.693C14.4641 11.7318 14.4146 11.7641 14.35 11.7899C14.2898 11.8157 14.2101 11.8286 14.1111 11.8286H11.6641C11.5005 11.8286 11.3714 11.7899 11.2767 11.7124C11.182 11.6349 11.1346 11.5252 11.1346 11.3831V7.41228Z" fill="#FFEB01"/>
<path d="M16.1138 11.3315C16.1138 11.508 16.0578 11.6349 15.9459 11.7124C15.834 11.7899 15.7092 11.8286 15.5714 11.8286C15.4982 11.8286 15.4272 11.8179 15.3583 11.7964C15.2895 11.7791 15.2271 11.749 15.1711 11.706C15.1194 11.6672 15.0764 11.6156 15.042 11.551C15.0118 11.4907 14.9968 11.4176 14.9968 11.3315V7.4252C14.9968 7.34341 15.0118 7.27239 15.042 7.21213C15.0764 7.14756 15.1194 7.09591 15.1711 7.05717C15.2271 7.01412 15.2895 6.98399 15.3583 6.96678C15.4272 6.94525 15.4982 6.93449 15.5714 6.93449C15.7092 6.93449 15.834 6.97538 15.9459 7.05717C16.0578 7.13895 16.1138 7.26163 16.1138 7.4252V8.81338L17.8764 7.08299C17.9238 7.03565 17.9797 7.00121 18.0443 6.97969C18.1132 6.95386 18.182 6.94095 18.2509 6.94095C18.3198 6.93664 18.3844 6.94525 18.4446 6.96678C18.5092 6.98399 18.5651 7.01197 18.6125 7.05071C18.7115 7.1368 18.761 7.24441 18.761 7.37354C18.7653 7.50268 18.7201 7.61244 18.6254 7.70283L17.0177 9.24597L18.7868 10.9957C18.916 11.1206 18.9805 11.2561 18.9805 11.4025C18.9848 11.5532 18.9267 11.6715 18.8062 11.7576C18.6857 11.8437 18.5587 11.8781 18.4253 11.8609C18.2918 11.848 18.1756 11.792 18.0766 11.693L16.1138 9.73668V11.3315Z" fill="#FFEB01"/>
</svg>
