<svg width="172" height="51" viewBox="0 0 172 51" fill="none" xmlns="http://www.w3.org/2000/svg">
<rect width="172" height="50.3883" rx="14" fill="#E4E4E4"/>
<path d="M88.083 21.707H89.812V23.371H88.083V21.707ZM87.784 18.964H89.279V19.276C89.279 19.5967 89.214 19.9043 89.084 20.199C88.954 20.4937 88.759 20.7667 88.499 21.018C88.2477 21.2607 87.927 21.4773 87.537 21.668C87.1557 21.8587 86.7093 22.0147 86.198 22.136C85.6953 22.2573 85.1363 22.3397 84.521 22.383L83.988 21.083C84.5167 21.057 84.9847 21.005 85.392 20.927C85.808 20.8403 86.1633 20.7363 86.458 20.615C86.7613 20.4937 87.0083 20.3637 87.199 20.225C87.3983 20.0777 87.5457 19.9217 87.641 19.757C87.7363 19.5923 87.784 19.432 87.784 19.276V18.964ZM88.655 18.964H90.15V19.276C90.15 19.432 90.1977 19.5923 90.293 19.757C90.3883 19.9217 90.5313 20.0777 90.722 20.225C90.9213 20.3637 91.1683 20.4937 91.463 20.615C91.7663 20.7363 92.1217 20.8403 92.529 20.927C92.945 21.005 93.4217 21.057 93.959 21.083L93.426 22.383C92.802 22.3397 92.2343 22.2573 91.723 22.136C91.2203 22.0147 90.7783 21.863 90.397 21.681C90.0157 21.4903 89.695 21.2737 89.435 21.031C89.175 20.7797 88.98 20.5067 88.85 20.212C88.72 19.9173 88.655 19.6053 88.655 19.276V18.964ZM84.521 18.405H93.439V19.718H84.521V18.405ZM84.508 25.373H93.413V26.673H84.508V25.373ZM83.533 22.799H94.427V24.151H83.533V22.799ZM88.941 27.011C90.111 27.011 91.0167 27.1497 91.658 27.427C92.2993 27.6957 92.62 28.0857 92.62 28.597C92.62 29.117 92.2993 29.5113 91.658 29.78C91.0167 30.0487 90.111 30.183 88.941 30.183C87.7797 30.183 86.8783 30.0487 86.237 29.78C85.5957 29.5113 85.275 29.117 85.275 28.597C85.275 28.0857 85.5957 27.6957 86.237 27.427C86.8783 27.1497 87.7797 27.011 88.941 27.011ZM88.941 28.155C88.317 28.155 87.849 28.1897 87.537 28.259C87.225 28.3197 87.069 28.4323 87.069 28.597C87.069 28.7617 87.225 28.8787 87.537 28.948C87.849 29.0173 88.317 29.052 88.941 29.052C89.5737 29.052 90.046 29.0173 90.358 28.948C90.6787 28.8787 90.839 28.7617 90.839 28.597C90.839 28.4323 90.6787 28.3197 90.358 28.259C90.046 28.1897 89.5737 28.155 88.941 28.155ZM88.096 24.528H89.812V26.14H88.096V24.528ZM98.716 18.938C99.3313 18.938 99.873 19.1157 100.341 19.471C100.818 19.8177 101.19 20.316 101.459 20.966C101.736 21.6073 101.875 22.3657 101.875 23.241C101.875 24.125 101.736 24.892 101.459 25.542C101.19 26.1833 100.818 26.6817 100.341 27.037C99.873 27.3837 99.3313 27.557 98.716 27.557C98.1007 27.557 97.5547 27.3837 97.078 27.037C96.6013 26.6817 96.2243 26.1833 95.947 25.542C95.6783 24.892 95.544 24.125 95.544 23.241C95.544 22.3657 95.6783 21.6073 95.947 20.966C96.2243 20.316 96.6013 19.8177 97.078 19.471C97.5547 19.1157 98.1007 18.938 98.716 18.938ZM98.716 20.511C98.4213 20.511 98.157 20.615 97.923 20.823C97.6977 21.031 97.52 21.3387 97.39 21.746C97.2687 22.1447 97.208 22.643 97.208 23.241C97.208 23.8303 97.2687 24.333 97.39 24.749C97.52 25.1563 97.6977 25.464 97.923 25.672C98.157 25.88 98.4213 25.984 98.716 25.984C99.0107 25.984 99.2707 25.88 99.496 25.672C99.7213 25.464 99.8947 25.1563 100.016 24.749C100.146 24.333 100.211 23.8303 100.211 23.241C100.211 22.643 100.146 22.1447 100.016 21.746C99.8947 21.3387 99.7213 21.031 99.496 20.823C99.2707 20.615 99.0107 20.511 98.716 20.511ZM103.175 18.119H104.917V30.157H103.175V18.119ZM104.54 22.656H106.659V24.073H104.54V22.656ZM109.843 24.229H111.572V27.596H109.843V24.229ZM114.211 24.229H115.94V27.596H114.211V24.229ZM107.451 27.349H118.358V28.753H107.451V27.349ZM112.885 18.704C113.752 18.704 114.523 18.8383 115.199 19.107C115.884 19.3757 116.417 19.7527 116.798 20.238C117.188 20.7147 117.383 21.2823 117.383 21.941C117.383 22.591 117.188 23.1587 116.798 23.644C116.417 24.1207 115.884 24.4933 115.199 24.762C114.523 25.0307 113.752 25.165 112.885 25.165C112.027 25.165 111.256 25.0307 110.571 24.762C109.895 24.4933 109.362 24.1207 108.972 23.644C108.582 23.1587 108.387 22.591 108.387 21.941C108.387 21.2823 108.582 20.7147 108.972 20.238C109.362 19.7527 109.895 19.3757 110.571 19.107C111.256 18.8383 112.027 18.704 112.885 18.704ZM112.885 20.043C112.33 20.043 111.841 20.121 111.416 20.277C111 20.4243 110.675 20.6367 110.441 20.914C110.207 21.1913 110.09 21.5337 110.09 21.941C110.09 22.331 110.207 22.669 110.441 22.955C110.675 23.2323 111 23.449 111.416 23.605C111.841 23.7523 112.33 23.826 112.885 23.826C113.448 23.826 113.938 23.7523 114.354 23.605C114.779 23.449 115.104 23.2323 115.329 22.955C115.563 22.669 115.68 22.331 115.68 21.941C115.68 21.5337 115.563 21.1913 115.329 20.914C115.104 20.6367 114.779 20.4243 114.354 20.277C113.938 20.121 113.448 20.043 112.885 20.043Z" fill="#8E8E8E"/>
<path fill-rule="evenodd" clip-rule="evenodd" d="M63 16.6425C68.548 10.94 82.4178 20.9194 63 33.75C43.5822 20.9194 57.452 10.94 63 16.6425Z" fill="#8E8E8E"/>
</svg>
